<svg width="447" height="34" viewBox="0 0 447 34" fill="none" xmlns="http://www.w3.org/2000/svg">
<path d="M39.1406 34H31.6641V13.8906C31.6641 11.7188 31.7578 9.32031 31.9453 6.69531H31.7578C31.3672 8.75781 31.0156 10.2422 30.7031 11.1484L22.8281 34H16.6406L8.625 11.3828C8.40625 10.7734 8.05469 9.21094 7.57031 6.69531H7.35938C7.5625 10.0078 7.66406 12.9141 7.66406 15.4141V34H0.84375V0.390625H11.9297L18.7969 20.3125C19.3438 21.9062 19.7422 23.5078 19.9922 25.1172H20.1328C20.5547 23.2578 21 21.6406 21.4688 20.2656L28.3359 0.390625H39.1406V34ZM70.1916 34H62.6213V0.390625H70.1916V34ZM121.891 34H113.196L107.969 25.3516C107.578 24.6953 107.203 24.1094 106.844 23.5938C106.485 23.0781 106.118 22.6406 105.743 22.2812C105.383 21.9062 105 21.625 104.594 21.4375C104.203 21.2344 103.774 21.1328 103.305 21.1328H101.266V34H93.6956V0.390625H105.696C113.852 0.390625 117.93 3.4375 117.93 9.53125C117.93 10.7031 117.75 11.7891 117.391 12.7891C117.032 13.7734 116.524 14.6641 115.868 15.4609C115.211 16.2578 114.414 16.9453 113.477 17.5234C112.555 18.1016 111.524 18.5547 110.383 18.8828V18.9766C110.883 19.1328 111.368 19.3906 111.836 19.75C112.305 20.0938 112.758 20.5 113.196 20.9688C113.633 21.4375 114.047 21.9453 114.438 22.4922C114.844 23.0234 115.211 23.5469 115.539 24.0625L121.891 34ZM101.266 6.0625V15.4141H104.547C106.172 15.4141 107.477 14.9453 108.461 14.0078C109.461 13.0547 109.961 11.875 109.961 10.4688C109.961 7.53125 108.203 6.0625 104.688 6.0625H101.266ZM170.45 34H162.2L159.809 26.5234H147.856L145.489 34H137.286L149.52 0.390625H158.497L170.45 34ZM158.075 20.7109L154.465 9.41406C154.2 8.57031 154.012 7.5625 153.903 6.39062H153.715C153.637 7.375 153.442 8.35156 153.129 9.32031L149.473 20.7109H158.075ZM220.719 34H213.079L199.227 12.8828C198.415 11.6484 197.852 10.7188 197.54 10.0938H197.446C197.571 11.2812 197.633 13.0938 197.633 15.5312V34H190.485V0.390625H198.641L211.977 20.8516C212.587 21.7734 213.149 22.6875 213.665 23.5938H213.758C213.633 22.8125 213.571 21.2734 213.571 18.9766V0.390625H220.719V34Z" fill="black"/>
<path d="M296.86 6.55469H287.274V34H279.681V6.55469H270.142V0.390625H296.86V6.55469ZM337.38 34H317.224V0.390625H336.607V6.55469H324.794V14.0312H335.786V20.1719H324.794V27.8594H337.38V34ZM388.165 34H379.915L377.525 26.5234H365.572L363.204 34H355.001L367.236 0.390625H376.212L388.165 34ZM375.79 20.7109L372.181 9.41406C371.915 8.57031 371.728 7.5625 371.618 6.39062H371.431C371.353 7.375 371.158 8.35156 370.845 9.32031L367.189 20.7109H375.79ZM446.497 34H439.021V13.8906C439.021 11.7188 439.115 9.32031 439.302 6.69531H439.115C438.724 8.75781 438.372 10.2422 438.06 11.1484L430.185 34H423.997L415.982 11.3828C415.763 10.7734 415.412 9.21094 414.927 6.69531H414.716C414.919 10.0078 415.021 12.9141 415.021 15.4141V34H408.201V0.390625H419.287L426.154 20.3125C426.701 21.9062 427.099 23.5078 427.349 25.1172H427.49C427.912 23.2578 428.357 21.6406 428.826 20.2656L435.693 0.390625H446.497V34Z" fill="#FF0D0D"/>
</svg>
